#!OML:ASF I:\Actors\actors\Patient Classification 1\Patient 1\Session 1\Subject1.ASF
:FULLY-SPECIFIED
:DEGREES
831
root 1.25022 17.6741 9.43549 14.665 -2.83194 -8.20826
lowerback 0.95704 0.303765 4.75031
upperback -9.69322 0.926485 2.28335
thorax -10.8543 0.150697 -0.293997
lowerneck -10.3895 -5.20164 -3.76247
upperneck 11.2542 -8.01335 11.2696
head 5.73108 -3.3121 3.49569
rclavicle 9.98893e-015 -1.55052e-014
rhumerus 35.2814 35.4272 -19.1738
rradius 97.771
rwrist 13.8573
rhand -4.61223 -48.3813
rfingers 7.12502
rthumb 21.1659 -77.2459
lclavicle 9.98893e-015 -1.55052e-014
lhumerus 43.6894 -38.8381 14.905
lradius 94.2051
lwrist 2.82085
lhand -37.1412 -4.28755
lfingers 7.12502
lthumb -10.2109 25.4446
rfemur -12.8756 24.8931 19.5586
rtibia 5.98961
rfoot -10.7007 -24.2503
rtoes 0.759684
lfemur -3.70111 -38.0826 -9.21331
ltibia -3.50575
lfoot -15.6644 47.558
ltoes 7.70656
832
root 1.26644 17.6541 9.44784 13.9462 -3.13066 -8.08089
lowerback 0.54323 0.288124 4.69009
upperback -9.85898 0.875503 2.24943
thorax -10.7946 0.128149 -0.288125
lowerneck -10.0011 -5.15991 -3.73181
upperneck 11.8747 -8.00171 11.0572
head 5.8451 -3.31306 3.43295
rclavicle -3.96575e-014 8.74653e-015
rhumerus 35.1747 34.6173 -17.9479
rradius 99.655
rwrist 13.351
rhand -3.71835 -48.5795
rfingers 7.12502
rthumb 22.0244 -77.3454
lclavicle -3.96575e-014 8.74653e-015
lhumerus 43.2919 -37.6633 14.4062
lradius 95.408
lwrist 3.53229
lhand -37.2267 -4.26021
lfingers 7.12502
lthumb -10.2934 25.4679
rfemur -12.2583 24.5708 19.7572
rtibia 6.57766
rfoot -11.1256 -23.7249
rtoes -0.0711179
lfemur -2.50524 -37.6923 -10.2701
ltibia -3.55299
lfoot -15.3808 47.2988
ltoes 7.1395
833
root 1.28095 17.6345 9.46182 13.2405 -3.41022 -7.92806
lowerback 0.0942784 0.295489 4.59936
upperback -10.0298 0.851473 2.20527
thorax -10.7183 0.121223 -0.279064
lowerneck -9.57983 -5.17623 -3.73072
upperneck 12.416 -8.06277 10.8887
head 5.93776 -3.35168 3.38307
rclavicle -1.09332e-014 4.73108e-014
rhumerus 35.0705 33.6507 -16.7797
rradius 101.326
rwrist 12.7269
rhand -2.95432 -49.0417
rfingers 7.12502
rthumb 22.7578 -77.7194
lclavicle -1.09332e-014 4.73108e-014
lhumerus 43.0452 -36.4184 13.9949
lradius 96.3349
lwrist 4.07234
lhand -37.2178 -4.43421
lfingers 7.12502
lthumb -10.2847 25.2943
rfemur -11.6122 24.2323 19.8966
rtibia 7.06265
rfoot -11.4941 -23.1633
rtoes -0.733832
lfemur -1.35224 -37.2158 -11.3215
ltibia -3.57148
lfoot -14.9156 46.9882
ltoes 6.27339
834
root 1.29478 17.6183 9.47464 12.5985 -3.58345 -7.82631
lowerback -0.393803 0.305611 4.59683
upperback -10.1814 0.836329 2.19212
thorax -10.5974 0.113547 -0.286864
lowerneck -9.66301 -5.10033 -4.08075
upperneck 13.6807 -8.07434 11.1005
head 6.37275 -3.31661 3.50815
rclavicle 2.68359e-015 -4.19436e-014
rhumerus 34.9387 32.4387 -15.7618
rradius 102.738
rwrist 11.8125
rhand -1.91214 -49.3753
rfingers 7.12502
rthumb 23.7577 -77.9267
lclavicle 2.68359e-015 -4.19436e-014
lhumerus 42.9454 -35.0978 13.6474
lradius 97.1041
lwrist 4.80443
lhand -36.8668 -3.92521
lfingers 7.12502
lthumb -9.94609 25.8198
rfemur -11.0368 23.8766 20.0572
rtibia 7.5355
rfoot -11.7746 -22.6331
rtoes -1.44212
lfemur -0.467182 -36.4231 -12.1182
ltibia -3.489
lfoot -14.6706 46.2993
ltoes 5.75288
835
root 1.30979 17.6066 9.48589 11.9804 -3.63532 -7.7887
lowerback -0.86881 0.319604 4.68815
upperback -10.3348 0.832474 2.1778
thorax -10.4869 0.102915 -0.349003
lowerneck -9.56183 -5.11905 -4.26767
upperneck 14.5824 -8.17507 11.1159
head 6.65619 -3.3497 3.53992
rclavicle 2.67365e-014 -5.76476e-015
rhumerus 34.7267 31.0433 -14.9123
rradius 103.919
rwrist 10.5029
rhand -1.12826 -49.7909
rfingers 7.12502
rthumb 24.5093 -78.2426
lclavicle 2.67365e-014 -5.76476e-015
lhumerus 43.0938 -33.6996 13.1799
lradius 97.8033
lwrist 5.78258
lhand -36.2668 -3.31805
lfingers 7.12502
lthumb -9.36725 26.4538
rfemur -10.4924 23.517 20.2728
rtibia 7.96496
rfoot -12.0676 -22.226
rtoes -2.01448
lfemur 0.204462 -35.4889 -12.6897
ltibia -3.28126
lfoot -14.4401 45.3783
ltoes 5.15482
836
root 1.32447 17.5983 9.49813 11.3294 -3.63178 -7.7607
lowerback -1.30721 0.405735 4.77792
upperback -10.5214 0.921525 2.06078
thorax -10.4312 0.131249 -0.526956
lowerneck -9.20312 -5.24148 -4.00351
upperneck 15.1628 -8.41053 10.8466
head 6.7739 -3.46379 3.3959
rclavicle -5.46658e-016 1.94809e-014
rhumerus 34.1597 29.5666 -14.3462
rradius 104.909
rwrist 9.25845
rhand -0.788706 -50.0036
rfingers 7.12502
rthumb 24.8347 -78.4107
lclavicle -5.46658e-016 1.94809e-014
lhumerus 43.6784 -32.3624 12.594
lradius 98.4319
lwrist 6.72958
lhand -35.7055 -2.9326
lfingers 7.12502
lthumb -8.82559 26.8629
rfemur -9.86686 23.2188 20.5116
rtibia 8.31471
rfoot -12.3682 -21.9241
rtoes -2.29344
lfemur 0.884981 -34.6877 -13.2394
ltibia -3.03869
lfoot -14.0435 44.551
ltoes 4.20116
